<svg width="154" height="49" viewBox="0 0 154 49" fill="none" xmlns="http://www.w3.org/2000/svg">
<path d="M12.2889 4.02963L6.59998 12.0889V40.2963C6.59998 41.365 6.99955 42.39 7.7108 43.1457C8.42205 43.9014 9.38671 44.3259 10.3926 44.3259H36.9407C37.9466 44.3259 38.9112 43.9014 39.6225 43.1457C40.3337 42.39 40.7333 41.365 40.7333 40.2963V12.0889L35.0444 4.02963H12.2889Z" stroke="white" stroke-width="1.42222" stroke-linecap="round" stroke-linejoin="round"/>
<path d="M31.2519 20.1482C31.2519 22.2856 30.4528 24.3355 29.0303 25.8469C27.6078 27.3583 25.6784 28.2074 23.6667 28.2074C21.655 28.2074 19.7257 27.3583 18.3032 25.8469C16.8807 24.3355 16.0815 22.2856 16.0815 20.1482" stroke="white" stroke-width="1.42222" stroke-linecap="round" stroke-linejoin="round"/>
<path d="M6.59998 12.0889H40.7333" stroke="white" stroke-width="1.42222" stroke-linecap="round" stroke-linejoin="round"/>
<path d="M57.4587 14.1303V21.2983C57.4587 22.0151 57.635 22.5669 57.9877 22.9538C58.3404 23.3406 58.8581 23.534 59.5408 23.534C60.2235 23.534 60.7468 23.3406 61.1109 22.9538C61.475 22.5669 61.6571 22.0151 61.6571 21.2983V14.1303H64.5755V21.2812C64.5755 22.3507 64.3479 23.2553 63.8928 23.9948C63.4377 24.7344 62.8233 25.2919 62.0496 25.6674C61.2873 26.0428 60.4339 26.2306 59.4896 26.2306C58.5452 26.2306 57.6976 26.0485 56.9467 25.6844C56.2071 25.309 55.6211 24.7514 55.1888 24.0119C54.7564 23.261 54.5403 22.3507 54.5403 21.2812V14.1303H57.4587ZM75.7555 17.9874C75.7555 18.6814 75.5962 19.3185 75.2776 19.8988C74.959 20.4677 74.4698 20.9285 73.8099 21.2812C73.1499 21.6339 72.3307 21.8103 71.3523 21.8103H69.5432V26.1111H66.6248V14.1303H71.3523C72.308 14.1303 73.1158 14.2953 73.7757 14.6252C74.4356 14.9552 74.9306 15.4103 75.2605 15.9905C75.5905 16.5708 75.7555 17.2364 75.7555 17.9874ZM71.1304 19.4892C71.6879 19.4892 72.1032 19.3584 72.3763 19.0967C72.6493 18.835 72.7859 18.4652 72.7859 17.9874C72.7859 17.5095 72.6493 17.1397 72.3763 16.878C72.1032 16.6163 71.6879 16.4855 71.1304 16.4855H69.5432V19.4892H71.1304ZM85.2264 26.2306C84.3503 26.2306 83.5652 26.0883 82.8712 25.8039C82.1771 25.5194 81.6196 25.0985 81.1987 24.541C80.7891 23.9834 80.5729 23.3122 80.5501 22.5271H83.6563C83.7018 22.9708 83.8554 23.3122 84.1171 23.5511C84.3787 23.7786 84.7201 23.8924 85.1411 23.8924C85.5734 23.8924 85.9147 23.7957 86.1651 23.6023C86.4154 23.3975 86.5405 23.1187 86.5405 22.766C86.5405 22.4702 86.4381 22.2256 86.2333 22.0322C86.0399 21.8387 85.7953 21.6794 85.4995 21.5543C85.215 21.4291 84.8054 21.2869 84.2707 21.1276C83.497 20.8887 82.8655 20.6497 82.3763 20.4108C81.887 20.1719 81.466 19.8192 81.1133 19.3527C80.7606 18.8862 80.5843 18.2775 80.5843 17.5265C80.5843 16.4115 80.9882 15.5411 81.796 14.9153C82.6038 14.2782 83.6563 13.9596 84.9533 13.9596C86.2731 13.9596 87.337 14.2782 88.1448 14.9153C88.9526 15.5411 89.385 16.4172 89.4419 17.5436H86.2845C86.2618 17.1568 86.1195 16.8553 85.8579 16.6391C85.5962 16.4115 85.2605 16.2977 84.8509 16.2977C84.4982 16.2977 84.2138 16.3945 83.9976 16.5879C83.7814 16.7699 83.6733 17.0373 83.6733 17.39C83.6733 17.7769 83.8554 18.0784 84.2195 18.2945C84.5835 18.5107 85.1524 18.744 85.9261 18.9943C86.6998 19.256 87.3256 19.5063 87.8035 19.7452C88.2927 19.9841 88.7137 20.3312 89.0664 20.7863C89.4191 21.2414 89.5955 21.8274 89.5955 22.5442C89.5955 23.2268 89.4191 23.8469 89.0664 24.4044C88.7251 24.9619 88.2244 25.4057 87.5645 25.7356C86.9046 26.0656 86.1252 26.2306 85.2264 26.2306ZM97.2453 16.4855C98.3376 16.4855 99.2137 16.8496 99.8736 17.5778C100.534 18.2946 100.863 19.2844 100.863 20.5474V26.1111H97.9621V20.9399C97.9621 20.3027 97.7972 19.8078 97.4672 19.4551C97.1372 19.1024 96.6935 18.926 96.136 18.926C95.5785 18.926 95.1348 19.1024 94.8048 19.4551C94.4748 19.8078 94.3099 20.3027 94.3099 20.9399V26.1111H91.3915V13.4817H94.3099V17.8679C94.6057 17.4469 95.0096 17.1113 95.5216 16.8609C96.0336 16.6106 96.6082 16.4855 97.2453 16.4855ZM107.226 26.2476C106.293 26.2476 105.451 26.0485 104.701 25.6503C103.961 25.2521 103.375 24.6832 102.943 23.9436C102.522 23.2041 102.311 22.3394 102.311 21.3495C102.311 20.371 102.527 19.512 102.96 18.7724C103.392 18.0215 103.984 17.4469 104.735 17.0487C105.486 16.6505 106.328 16.4513 107.261 16.4513C108.194 16.4513 109.035 16.6505 109.786 17.0487C110.537 17.4469 111.129 18.0215 111.561 18.7724C111.994 19.512 112.21 20.371 112.21 21.3495C112.21 22.328 111.988 23.1927 111.544 23.9436C111.112 24.6832 110.515 25.2521 109.752 25.6503C109.001 26.0485 108.159 26.2476 107.226 26.2476ZM107.226 23.7218C107.784 23.7218 108.256 23.517 108.643 23.1074C109.041 22.6978 109.24 22.1118 109.24 21.3495C109.24 20.5872 109.047 20.0012 108.66 19.5916C108.285 19.182 107.818 18.9772 107.261 18.9772C106.692 18.9772 106.219 19.182 105.844 19.5916C105.469 19.9898 105.281 20.5758 105.281 21.3495C105.281 22.1118 105.463 22.6978 105.827 23.1074C106.202 23.517 106.669 23.7218 107.226 23.7218ZM118.093 26.2476C117.16 26.2476 116.318 26.0485 115.567 25.6503C114.828 25.2521 114.242 24.6832 113.809 23.9436C113.388 23.2041 113.178 22.3394 113.178 21.3495C113.178 20.371 113.394 19.512 113.826 18.7724C114.259 18.0215 114.85 17.4469 115.601 17.0487C116.352 16.6505 117.194 16.4513 118.127 16.4513C119.06 16.4513 119.902 16.6505 120.653 17.0487C121.404 17.4469 121.996 18.0215 122.428 18.7724C122.86 19.512 123.077 20.371 123.077 21.3495C123.077 22.328 122.855 23.1927 122.411 23.9436C121.979 24.6832 121.381 25.2521 120.619 25.6503C119.868 26.0485 119.026 26.2476 118.093 26.2476ZM118.093 23.7218C118.651 23.7218 119.123 23.517 119.51 23.1074C119.908 22.6978 120.107 22.1118 120.107 21.3495C120.107 20.5872 119.914 20.0012 119.527 19.5916C119.151 19.182 118.685 18.9772 118.127 18.9772C117.558 18.9772 117.086 19.182 116.711 19.5916C116.335 19.9898 116.147 20.5758 116.147 21.3495C116.147 22.1118 116.33 22.6978 116.694 23.1074C117.069 23.517 117.536 23.7218 118.093 23.7218ZM127.543 17.9361C127.828 17.4924 128.22 17.134 128.721 16.8609C129.221 16.5879 129.807 16.4513 130.479 16.4513C131.264 16.4513 131.975 16.6505 132.612 17.0487C133.249 17.4469 133.75 18.0158 134.114 18.7553C134.489 19.4949 134.677 20.3539 134.677 21.3324C134.677 22.3109 134.489 23.1756 134.114 23.9266C133.75 24.6661 133.249 25.2407 132.612 25.6503C131.975 26.0485 131.264 26.2476 130.479 26.2476C129.819 26.2476 129.233 26.1111 128.721 25.838C128.22 25.565 127.828 25.2122 127.543 24.7799V30.6508H124.625V16.5879H127.543V17.9361ZM131.707 21.3324C131.707 20.6042 131.503 20.0354 131.093 19.6257C130.695 19.2048 130.2 18.9943 129.608 18.9943C129.028 18.9943 128.533 19.2048 128.123 19.6257C127.725 20.0467 127.526 20.6213 127.526 21.3495C127.526 22.0777 127.725 22.6522 128.123 23.0732C128.533 23.4942 129.028 23.7047 129.608 23.7047C130.189 23.7047 130.683 23.4942 131.093 23.0732C131.503 22.6409 131.707 22.0606 131.707 21.3324ZM145.185 21.1959C145.185 21.469 145.168 21.7534 145.134 22.0492H138.529C138.575 22.6409 138.762 23.096 139.092 23.4146C139.434 23.7218 139.849 23.8754 140.338 23.8754C141.066 23.8754 141.573 23.5682 141.857 22.9538H144.963C144.804 23.5795 144.514 24.1427 144.093 24.6434C143.683 25.144 143.166 25.5365 142.54 25.821C141.914 26.1054 141.214 26.2476 140.441 26.2476C139.508 26.2476 138.677 26.0485 137.949 25.6503C137.221 25.2521 136.652 24.6832 136.242 23.9436C135.833 23.2041 135.628 22.3394 135.628 21.3495C135.628 20.3596 135.827 19.4949 136.225 18.7553C136.635 18.0158 137.204 17.4469 137.932 17.0487C138.66 16.6505 139.496 16.4513 140.441 16.4513C141.362 16.4513 142.181 16.6448 142.898 17.0316C143.615 17.4185 144.173 17.9703 144.571 18.6871C144.98 19.4039 145.185 20.2402 145.185 21.1959ZM142.199 20.4279C142.199 19.9273 142.028 19.529 141.687 19.2332C141.345 18.9374 140.919 18.7895 140.407 18.7895C139.917 18.7895 139.502 18.9317 139.161 19.2162C138.831 19.5006 138.626 19.9045 138.546 20.4279H142.199ZM149.643 18.1751C149.985 17.6517 150.411 17.2421 150.923 16.9463C151.435 16.6391 152.004 16.4855 152.63 16.4855V19.5746H151.828C151.1 19.5746 150.553 19.7338 150.189 20.0524C149.825 20.3596 149.643 20.9058 149.643 21.6908V26.1111H146.725V16.5879H149.643V18.1751Z" fill="#EC981A"/>
<path d="M54.2559 32.1282V34.1164H56.4233V34.7564H54.2559V36.8044H56.6793V37.4444H53.4793V31.4882H56.6793V32.1282H54.2559ZM59.5951 36.7276L61.0458 32.7682H61.8735L60.0389 37.4444H59.1343L57.2997 32.7682H58.1359L59.5951 36.7276ZM66.9043 34.9271C66.9043 35.075 66.8958 35.2314 66.8787 35.3964H63.1411C63.1696 35.8572 63.326 36.2185 63.6105 36.4802C63.9006 36.7362 64.2505 36.8642 64.6601 36.8642C64.9957 36.8642 65.2745 36.7874 65.4963 36.6338C65.7239 36.4745 65.8832 36.264 65.9742 36.0023H66.8105C66.6853 36.4517 66.435 36.8186 66.0595 37.1031C65.6841 37.3818 65.2176 37.5212 64.6601 37.5212C64.2163 37.5212 63.8181 37.4217 63.4654 37.2226C63.1184 37.0234 62.8453 36.7418 62.6462 36.3778C62.4471 36.008 62.3475 35.5813 62.3475 35.0978C62.3475 34.6142 62.4442 34.1904 62.6377 33.8263C62.8311 33.4622 63.1013 33.1834 63.4483 32.99C63.801 32.7909 64.205 32.6914 64.6601 32.6914C65.1038 32.6914 65.4963 32.7881 65.8377 32.9815C66.179 33.1749 66.4407 33.4423 66.6227 33.7836C66.8105 34.1193 66.9043 34.5004 66.9043 34.9271ZM66.1022 34.765C66.1022 34.4691 66.0368 34.216 65.9059 34.0055C65.7751 33.7893 65.5959 33.6272 65.3683 33.5191C65.1465 33.4053 64.899 33.3484 64.6259 33.3484C64.2334 33.3484 63.8978 33.4736 63.619 33.7239C63.3459 33.9742 63.1895 34.3212 63.1497 34.765H66.1022ZM68.7059 33.5276C68.8424 33.2602 69.0358 33.0526 69.2861 32.9047C69.5421 32.7568 69.8522 32.6828 70.2163 32.6828V33.485H70.0115C69.1411 33.485 68.7059 33.9571 68.7059 34.9015V37.4444H67.9293V32.7682H68.7059V33.5276ZM75.1404 32.7682L72.3244 39.646H71.5223L72.4439 37.3932L70.558 32.7682H71.4199L72.8876 36.557L74.3383 32.7682H75.1404ZM76.8682 33.4082V36.1644C76.8682 36.392 76.9166 36.5541 77.0133 36.6508C77.11 36.7418 77.2778 36.7874 77.5167 36.7874H78.0885V37.4444H77.3887C76.9564 37.4444 76.6321 37.3449 76.4159 37.1458C76.1998 36.9466 76.0917 36.6195 76.0917 36.1644V33.4082H75.4858V32.7682H76.0917V31.5906H76.8682V32.7682H78.0885V33.4082H76.8682ZM81.3504 32.6828C81.7031 32.6828 82.0217 32.7596 82.3061 32.9132C82.5906 33.0611 82.8124 33.2858 82.9717 33.5874C83.1367 33.8889 83.2192 34.2558 83.2192 34.6882V37.4444H82.4512V34.7991C82.4512 34.3326 82.3346 33.977 82.1013 33.7324C81.8681 33.4821 81.5495 33.357 81.1456 33.357C80.736 33.357 80.4089 33.485 80.1643 33.741C79.9253 33.997 79.8059 34.3696 79.8059 34.8588V37.4444H79.0293V31.1298H79.8059V33.4338C79.9595 33.1948 80.17 33.0099 80.4373 32.8791C80.7104 32.7482 81.0148 32.6828 81.3504 32.6828ZM84.8887 32.0087C84.7408 32.0087 84.6157 31.9575 84.5133 31.8551C84.4109 31.7527 84.3597 31.6275 84.3597 31.4796C84.3597 31.3317 84.4109 31.2066 84.5133 31.1042C84.6157 31.0018 84.7408 30.9506 84.8887 30.9506C85.031 30.9506 85.1504 31.0018 85.2471 31.1042C85.3495 31.2066 85.4007 31.3317 85.4007 31.4796C85.4007 31.6275 85.3495 31.7527 85.2471 31.8551C85.1504 31.9575 85.031 32.0087 84.8887 32.0087ZM85.2642 32.7682V37.4444H84.4877V32.7682H85.2642ZM88.8661 32.6828C89.435 32.6828 89.8958 32.8563 90.2485 33.2034C90.6012 33.5447 90.7775 34.0396 90.7775 34.6882V37.4444H90.0095V34.7991C90.0095 34.3326 89.8929 33.977 89.6597 33.7324C89.4264 33.4821 89.1078 33.357 88.7039 33.357C88.2943 33.357 87.9672 33.485 87.7226 33.741C87.4837 33.997 87.3642 34.3696 87.3642 34.8588V37.4444H86.5877V32.7682H87.3642V33.4338C87.5178 33.1948 87.7254 33.0099 87.9871 32.8791C88.2545 32.7482 88.5475 32.6828 88.8661 32.6828ZM93.9745 32.6914C94.3784 32.6914 94.7312 32.7795 95.0327 32.9559C95.3399 33.1322 95.5674 33.3541 95.7153 33.6215V32.7682H96.5004V37.5468C96.5004 37.9735 96.4094 38.3518 96.2273 38.6818C96.0453 39.0174 95.7836 39.2791 95.4423 39.4668C95.1066 39.6546 94.7141 39.7484 94.2647 39.7484C93.6503 39.7484 93.1383 39.6034 92.7287 39.3132C92.3191 39.0231 92.0773 38.6277 92.0033 38.1271H92.7713C92.8567 38.4115 93.033 38.6391 93.3004 38.8098C93.5678 38.9861 93.8892 39.0743 94.2647 39.0743C94.6913 39.0743 95.0384 38.9406 95.3057 38.6732C95.5788 38.4058 95.7153 38.0304 95.7153 37.5468V36.5655C95.5617 36.8386 95.3342 37.0661 95.0327 37.2482C94.7312 37.4302 94.3784 37.5212 93.9745 37.5212C93.5592 37.5212 93.1809 37.4188 92.8396 37.214C92.504 37.0092 92.2394 36.7219 92.046 36.3522C91.8526 35.9824 91.7559 35.5614 91.7559 35.0892C91.7559 34.6114 91.8526 34.1932 92.046 33.8348C92.2394 33.4707 92.504 33.1891 92.8396 32.99C93.1809 32.7909 93.5592 32.6914 93.9745 32.6914ZM95.7153 35.0978C95.7153 34.745 95.6442 34.4378 95.502 34.1762C95.3598 33.9145 95.1664 33.7154 94.9217 33.5788C94.6828 33.4366 94.4183 33.3655 94.1281 33.3655C93.838 33.3655 93.5735 33.4338 93.3345 33.5703C93.0956 33.7068 92.905 33.9059 92.7628 34.1676C92.6206 34.4293 92.5495 34.7365 92.5495 35.0892C92.5495 35.4476 92.6206 35.7605 92.7628 36.0279C92.905 36.2896 93.0956 36.4915 93.3345 36.6338C93.5735 36.7703 93.838 36.8386 94.1281 36.8386C94.4183 36.8386 94.6828 36.7703 94.9217 36.6338C95.1664 36.4915 95.3598 36.2896 95.502 36.0279C95.6442 35.7605 95.7153 35.4505 95.7153 35.0978ZM99.7975 35.0892C99.7975 34.6114 99.8942 34.1932 100.088 33.8348C100.281 33.4707 100.546 33.1891 100.881 32.99C101.223 32.7909 101.604 32.6914 102.025 32.6914C102.389 32.6914 102.727 32.7767 103.04 32.9474C103.353 33.1123 103.592 33.3314 103.757 33.6044V31.1298H104.542V37.4444H103.757V36.5655C103.603 36.8442 103.376 37.0746 103.074 37.2567C102.773 37.433 102.42 37.5212 102.016 37.5212C101.601 37.5212 101.223 37.4188 100.881 37.214C100.546 37.0092 100.281 36.7219 100.088 36.3522C99.8942 35.9824 99.7975 35.5614 99.7975 35.0892ZM103.757 35.0978C103.757 34.745 103.686 34.4378 103.544 34.1762C103.401 33.9145 103.208 33.7154 102.963 33.5788C102.724 33.4366 102.46 33.3655 102.17 33.3655C101.88 33.3655 101.615 33.4338 101.376 33.5703C101.137 33.7068 100.947 33.9059 100.804 34.1676C100.662 34.4293 100.591 34.7365 100.591 35.0892C100.591 35.4476 100.662 35.7605 100.804 36.0279C100.947 36.2896 101.137 36.4915 101.376 36.6338C101.615 36.7703 101.88 36.8386 102.17 36.8386C102.46 36.8386 102.724 36.7703 102.963 36.6338C103.208 36.4915 103.401 36.2896 103.544 36.0279C103.686 35.7605 103.757 35.4505 103.757 35.0978ZM107.894 37.5212C107.456 37.5212 107.058 37.4217 106.699 37.2226C106.346 37.0234 106.068 36.7418 105.863 36.3778C105.664 36.008 105.564 35.5813 105.564 35.0978C105.564 34.6199 105.667 34.1989 105.871 33.8348C106.082 33.465 106.366 33.1834 106.725 32.99C107.083 32.7909 107.484 32.6914 107.928 32.6914C108.372 32.6914 108.773 32.7909 109.131 32.99C109.49 33.1834 109.771 33.4622 109.976 33.8263C110.186 34.1904 110.292 34.6142 110.292 35.0978C110.292 35.5813 110.184 36.008 109.967 36.3778C109.757 36.7418 109.47 37.0234 109.106 37.2226C108.741 37.4217 108.338 37.5212 107.894 37.5212ZM107.894 36.8386C108.173 36.8386 108.434 36.7731 108.679 36.6423C108.923 36.5114 109.12 36.3152 109.268 36.0535C109.421 35.7918 109.498 35.4732 109.498 35.0978C109.498 34.7223 109.424 34.4037 109.276 34.142C109.128 33.8803 108.935 33.6869 108.696 33.5618C108.457 33.4309 108.198 33.3655 107.919 33.3655C107.635 33.3655 107.373 33.4309 107.134 33.5618C106.901 33.6869 106.713 33.8803 106.571 34.142C106.429 34.4037 106.358 34.7223 106.358 35.0978C106.358 35.4789 106.426 35.8003 106.563 36.062C106.705 36.3237 106.893 36.52 107.126 36.6508C107.359 36.776 107.615 36.8386 107.894 36.8386ZM117.615 32.7682L114.799 39.646H113.997L114.919 37.3932L113.033 32.7682H113.895L115.363 36.557L116.813 32.7682H117.615ZM120.435 37.5212C119.997 37.5212 119.599 37.4217 119.241 37.2226C118.888 37.0234 118.609 36.7418 118.405 36.3778C118.205 36.008 118.106 35.5813 118.106 35.0978C118.106 34.6199 118.208 34.1989 118.413 33.8348C118.624 33.465 118.908 33.1834 119.266 32.99C119.625 32.7909 120.026 32.6914 120.47 32.6914C120.913 32.6914 121.314 32.7909 121.673 32.99C122.031 33.1834 122.313 33.4622 122.518 33.8263C122.728 34.1904 122.833 34.6142 122.833 35.0978C122.833 35.5813 122.725 36.008 122.509 36.3778C122.299 36.7418 122.011 37.0234 121.647 37.2226C121.283 37.4217 120.879 37.5212 120.435 37.5212ZM120.435 36.8386C120.714 36.8386 120.976 36.7731 121.221 36.6423C121.465 36.5114 121.661 36.3152 121.809 36.0535C121.963 35.7918 122.04 35.4732 122.04 35.0978C122.04 34.7223 121.966 34.4037 121.818 34.142C121.67 33.8803 121.477 33.6869 121.238 33.5618C120.999 33.4309 120.74 33.3655 120.461 33.3655C120.177 33.3655 119.915 33.4309 119.676 33.5618C119.443 33.6869 119.255 33.8803 119.113 34.142C118.971 34.4037 118.899 34.7223 118.899 35.0978C118.899 35.4789 118.968 35.8003 119.104 36.062C119.246 36.3237 119.434 36.52 119.667 36.6508C119.901 36.776 120.157 36.8386 120.435 36.8386ZM128.002 32.7682V37.4444H127.225V36.7532C127.077 36.9922 126.869 37.1799 126.602 37.3164C126.34 37.4473 126.05 37.5127 125.732 37.5127C125.368 37.5127 125.04 37.4387 124.75 37.2908C124.46 37.1372 124.23 36.9097 124.059 36.6082C123.894 36.3066 123.812 35.9397 123.812 35.5074V32.7682H124.58V35.405C124.58 35.8658 124.696 36.2213 124.93 36.4716C125.163 36.7162 125.481 36.8386 125.885 36.8386C126.301 36.8386 126.628 36.7106 126.867 36.4546C127.106 36.1986 127.225 35.8259 127.225 35.3367V32.7682H128.002ZM133.866 32.6828C134.435 32.6828 134.896 32.8563 135.248 33.2034C135.601 33.5447 135.778 34.0396 135.778 34.6882V37.4444H135.01V34.7991C135.01 34.3326 134.893 33.977 134.66 33.7324C134.426 33.4821 134.108 33.357 133.704 33.357C133.294 33.357 132.967 33.485 132.723 33.741C132.484 33.997 132.364 34.3696 132.364 34.8588V37.4444H131.588V32.7682H132.364V33.4338C132.518 33.1948 132.725 33.0099 132.987 32.8791C133.255 32.7482 133.547 32.6828 133.866 32.6828ZM141.313 34.9271C141.313 35.075 141.304 35.2314 141.287 35.3964H137.549C137.578 35.8572 137.734 36.2185 138.019 36.4802C138.309 36.7362 138.659 36.8642 139.068 36.8642C139.404 36.8642 139.683 36.7874 139.905 36.6338C140.132 36.4745 140.292 36.264 140.383 36.0023H141.219C141.094 36.4517 140.843 36.8186 140.468 37.1031C140.092 37.3818 139.626 37.5212 139.068 37.5212C138.625 37.5212 138.226 37.4217 137.874 37.2226C137.527 37.0234 137.254 36.7418 137.055 36.3778C136.855 36.008 136.756 35.5813 136.756 35.0978C136.756 34.6142 136.853 34.1904 137.046 33.8263C137.239 33.4622 137.51 33.1834 137.857 32.99C138.209 32.7909 138.613 32.6914 139.068 32.6914C139.512 32.6914 139.905 32.7881 140.246 32.9815C140.587 33.1749 140.849 33.4423 141.031 33.7836C141.219 34.1193 141.313 34.5004 141.313 34.9271ZM140.511 34.765C140.511 34.4691 140.445 34.216 140.314 34.0055C140.183 33.7893 140.004 33.6272 139.777 33.5191C139.555 33.4053 139.307 33.3484 139.034 33.3484C138.642 33.3484 138.306 33.4736 138.027 33.7239C137.754 33.9742 137.598 34.3212 137.558 34.765H140.511ZM146.604 34.9271C146.604 35.075 146.596 35.2314 146.579 35.3964H142.841C142.87 35.8572 143.026 36.2185 143.31 36.4802C143.601 36.7362 143.95 36.8642 144.36 36.8642C144.696 36.8642 144.974 36.7874 145.196 36.6338C145.424 36.4745 145.583 36.264 145.674 36.0023H146.51C146.385 36.4517 146.135 36.8186 145.76 37.1031C145.384 37.3818 144.918 37.5212 144.36 37.5212C143.916 37.5212 143.518 37.4217 143.165 37.2226C142.818 37.0234 142.545 36.7418 142.346 36.3778C142.147 36.008 142.048 35.5813 142.048 35.0978C142.048 34.6142 142.144 34.1904 142.338 33.8263C142.531 33.4622 142.801 33.1834 143.148 32.99C143.501 32.7909 143.905 32.6914 144.36 32.6914C144.804 32.6914 145.196 32.7881 145.538 32.9815C145.879 33.1749 146.141 33.4423 146.323 33.7836C146.51 34.1193 146.604 34.5004 146.604 34.9271ZM145.802 34.765C145.802 34.4691 145.737 34.216 145.606 34.0055C145.475 33.7893 145.296 33.6272 145.068 33.5191C144.846 33.4053 144.599 33.3484 144.326 33.3484C143.933 33.3484 143.598 33.4736 143.319 33.7239C143.046 33.9742 142.889 34.3212 142.85 34.765H145.802ZM147.339 35.0892C147.339 34.6114 147.436 34.1932 147.629 33.8348C147.823 33.4707 148.087 33.1891 148.423 32.99C148.764 32.7909 149.145 32.6914 149.566 32.6914C149.93 32.6914 150.269 32.7767 150.582 32.9474C150.895 33.1123 151.134 33.3314 151.299 33.6044V31.1298H152.084V37.4444H151.299V36.5655C151.145 36.8442 150.918 37.0746 150.616 37.2567C150.314 37.433 149.962 37.5212 149.558 37.5212C149.143 37.5212 148.764 37.4188 148.423 37.214C148.087 37.0092 147.823 36.7219 147.629 36.3522C147.436 35.9824 147.339 35.5614 147.339 35.0892ZM151.299 35.0978C151.299 34.745 151.228 34.4378 151.085 34.1762C150.943 33.9145 150.75 33.7154 150.505 33.5788C150.266 33.4366 150.002 33.3655 149.711 33.3655C149.421 33.3655 149.157 33.4338 148.918 33.5703C148.679 33.7068 148.488 33.9059 148.346 34.1676C148.204 34.4293 148.133 34.7365 148.133 35.0892C148.133 35.4476 148.204 35.7605 148.346 36.0279C148.488 36.2896 148.679 36.4915 148.918 36.6338C149.157 36.7703 149.421 36.8386 149.711 36.8386C150.002 36.8386 150.266 36.7703 150.505 36.6338C150.75 36.4915 150.943 36.2896 151.085 36.0279C151.228 35.7605 151.299 35.4505 151.299 35.0978Z" fill="#0B1423"/>
</svg>
